<svg xmlns="http://www.w3.org/2000/svg" viewBox="0 0 512 512">
  <defs>
    <linearGradient id="background" x1="0" y1="0" x2="1" y2="1">
      <stop offset="0" stop-color="#123dab"/>
      <stop offset="0.5" stop-color="#303fa4"/>
      <stop offset="1" stop-color="#6840ae"/>
    </linearGradient>
  </defs>
  <rect width="512" height="512" rx="96" fill="url(#background)"/>
  <path
    d="M256 172c-25 0-45 20-45 45v66c0 25 20 45 45 45s45-20 45-45v-66c0-25-20-45-45-45Zm0 0c-25 0-45 20-45 45v66c0 25 20 45 45 45s45-20 45-45v-66c0-25-20-45-45-45Z"
    fill="none"
    stroke="#fff"
    stroke-width="18"
    stroke-linecap="round"
  />
  <path
    d="M181 274v13c0 41 34 75 75 75s75-34 75-75v-13M256 362v35"
    fill="none"
    stroke="#fff"
    stroke-width="18"
    stroke-linecap="round"
  />
  <path
    d="M362 147a162 162 0 1 0 36 176"
    fill="none"
    stroke="#fff"
    stroke-width="19"
    stroke-linecap="round"
  />
  <path
    d="m354 110 9 48-48-9"
    fill="none"
    stroke="#fff"
    stroke-width="19"
    stroke-linecap="round"
    stroke-linejoin="round"
  />
</svg>
